<svg viewBox="0 0 640 400" data-background-color="#fafafa" preserveAspectRatio="xMidYMid meet" height="400" width="640" xmlns="http://www.w3.org/2000/svg" xmlns:xlink="http://www.w3.org/1999/xlink"><rect width="640" height="400" x="0" y="0" opacity="1" fill="#fafafa" data-fill-palette-color="background" id="background"></rect><g id="tight-bounds" transform="matrix(1,0,0,1,122.24000000000001,76.4)"><svg viewBox="0 0 395.52 247.2" height="247.2" width="395.52"><g><svg></svg></g><g><svg viewBox="0 0 395.52 247.2" height="247.2" width="395.52"><g transform="matrix(1,0,0,1,75.54432,106.31922349775785)"><svg viewBox="0 0 244.43135999999998 34.5615530044843" height="34.5615530044843" width="244.43135999999998"><g><svg viewBox="0 0 244.43135999999998 34.5615530044843" height="34.5615530044843" width="244.43135999999998"><g><svg viewBox="0 0 244.43135999999998 34.5615530044843" height="34.5615530044843" width="244.43135999999998"><g><svg viewBox="0 0 244.43135999999998 34.5615530044843" height="34.5615530044843" width="244.43135999999998"><g><svg viewBox="0 0 244.43135999999998 34.5615530044843" height="34.5615530044843" width="244.43135999999998"><g><svg viewBox="0 0 244.43135999999998 34.5615530044843" height="34.5615530044843" width="244.43135999999998"><g transform="matrix(1,0,0,1,0,0)"><svg width="244.43135999999998" viewBox="5.150000095367432 -37.900001525878906 356.77001953125 50.45000076293945" height="34.5615530044843" data-palette-color="#130912"><path d="M19.6 0.85Q12.35 0.85 8.75-2.83 5.15-6.5 5.15-13.25L5.15-13.25 5.15-37.9 10.05-37.9 10.05-13.25Q10.05-8.4 12.45-5.9 14.85-3.4 19.6-3.4L19.6-3.4Q24.35-3.4 26.75-5.9 29.15-8.4 29.15-13.25L29.15-13.25 29.15-37.9 34.05-37.9 34.05-13.25Q34.05-6.5 30.45-2.83 26.85 0.85 19.6 0.85L19.6 0.85ZM52.1 0.85Q49.05 0.85 46.7 0.35 44.35-0.15 41.8-1.35L41.8-1.35 41.8-6Q46.55-3.35 52.1-3.35L52.1-3.35Q54.9-3.35 56.12-4.48 57.35-5.6 57.35-7.45L57.35-7.45Q57.35-9.25 56.37-10.1 55.4-10.95 53.2-11.55L53.2-11.55 49.95-12.35Q46.45-13.2 44.45-15.05 42.45-16.9 42.45-20.5L42.45-20.5Q42.45-24.25 44.9-26.35 47.35-28.45 52.1-28.45L52.1-28.45Q54.55-28.45 56.65-27.98 58.75-27.5 60.85-26.65L60.85-26.65 60.85-22.25Q58.8-23.2 56.8-23.73 54.8-24.25 52.25-24.25L52.25-24.25Q49.6-24.25 48.42-23.23 47.25-22.2 47.25-20.65L47.25-20.65Q47.25-18.95 48.27-18.07 49.3-17.2 51.25-16.7L51.25-16.7 54.55-15.95Q57.05-15.35 58.67-14.45 60.3-13.55 61.22-11.93 62.15-10.3 62.15-7.6L62.15-7.6Q62.15-3.55 59.42-1.35 56.7 0.85 52.1 0.85L52.1 0.85ZM72.6-13.45Q72.7-8.85 74.9-6.1 77.1-3.35 81.9-3.35L81.9-3.35Q85.55-3.35 89.9-5.4L89.9-5.4 91.35-1.5Q86.8 0.85 81.5 0.85L81.5 0.85Q77.1 0.85 74-1 70.9-2.85 69.3-6.15 67.7-9.45 67.7-13.85L67.7-13.85Q67.7-18.5 69.37-21.78 71.05-25.05 73.9-26.75 76.75-28.45 80.3-28.45L80.3-28.45Q85.75-28.45 88.85-25.05 91.95-21.65 91.95-15.3L91.95-15.3 91.95-13.45 72.6-13.45ZM80.3-24.25Q74.1-24.25 72.9-17.4L72.9-17.4 87-17.4Q86.75-20.9 85.1-22.58 83.45-24.25 80.3-24.25L80.3-24.25ZM111.69-28.25L112.84-28.25 112.84-23.85 111.69-23.85Q107.39-23.85 103.34-20.4L103.34-20.4 103.34 0 98.64 0 98.64-27.65 103.34-27.65 103.34-24.55Q107.44-28.25 111.69-28.25L111.69-28.25ZM127.24 0.85Q124.19 0.85 121.84 0.35 119.49-0.15 116.94-1.35L116.94-1.35 116.94-6Q121.69-3.35 127.24-3.35L127.24-3.35Q130.04-3.35 131.27-4.48 132.49-5.6 132.49-7.45L132.49-7.45Q132.49-9.25 131.52-10.1 130.54-10.95 128.34-11.55L128.34-11.55 125.09-12.35Q121.59-13.2 119.59-15.05 117.59-16.9 117.59-20.5L117.59-20.5Q117.59-24.25 120.04-26.35 122.49-28.45 127.24-28.45L127.24-28.45Q129.69-28.45 131.79-27.98 133.89-27.5 135.99-26.65L135.99-26.65 135.99-22.25Q133.94-23.2 131.94-23.73 129.94-24.25 127.39-24.25L127.39-24.25Q124.74-24.25 123.57-23.23 122.39-22.2 122.39-20.65L122.39-20.65Q122.39-18.95 123.42-18.07 124.44-17.2 126.39-16.7L126.39-16.7 129.69-15.95Q132.19-15.35 133.82-14.45 135.44-13.55 136.37-11.93 137.29-10.3 137.29-7.6L137.29-7.6Q137.29-3.55 134.57-1.35 131.84 0.85 127.24 0.85L127.24 0.85ZM186.39-37.9L191.74-37.9 191.74 0 186.89 0 186.89-30.55 175.29-14.4 172.74-14.4 161.24-30.55 161.24 0 156.39 0 156.39-37.9 161.69-37.9 174.04-20.6 186.39-37.9ZM210.08-27.65Q214.48-27.65 216.78-26.18 219.08-24.7 219.83-22.23 220.58-19.75 220.58-16L220.58-16 220.58 0 215.88 0 215.88-2.75Q213.98-0.95 212.08-0.15 210.18 0.65 207.98 0.65L207.98 0.65Q205.38 0.65 203.28-0.48 201.18-1.6 199.96-3.73 198.73-5.85 198.73-8.75L198.73-8.75Q198.73-13.25 201.53-15.73 204.33-18.2 209.08-18.2L209.08-18.2Q212.83-18.2 215.83-16.55L215.83-16.55Q215.78-19 215.33-20.45 214.88-21.9 213.48-22.68 212.08-23.45 209.33-23.45L209.33-23.45 205.63-23.45 205.63-27.65 210.08-27.65ZM208.63-3.4Q210.33-3.4 212.21-4.2 214.08-5 215.88-6.6L215.88-6.6 215.88-12.9Q213.08-14.3 209.78-14.3L209.78-14.3Q207.13-14.3 205.33-13.03 203.53-11.75 203.53-8.75L203.53-8.75Q203.53-5.95 205.06-4.67 206.58-3.4 208.63-3.4L208.63-3.4ZM241.48-28.25Q246.58-28.25 249.06-25.55 251.53-22.85 251.53-16.65L251.53-16.65 251.53 0 246.83 0 246.83-16.65Q246.83-20.55 245.51-22.2 244.18-23.85 240.83-23.85L240.83-23.85Q236.93-23.85 233.03-20.45L233.03-20.45 233.03 0 228.33 0 228.33-27.65 233.03-27.65 233.03-24.7Q237.13-28.25 241.48-28.25L241.48-28.25ZM268.78-27.65Q273.18-27.65 275.48-26.18 277.78-24.7 278.53-22.23 279.28-19.75 279.28-16L279.28-16 279.28 0 274.58 0 274.58-2.75Q272.68-0.95 270.78-0.15 268.88 0.65 266.68 0.65L266.68 0.65Q264.08 0.65 261.98-0.48 259.88-1.6 258.65-3.73 257.43-5.85 257.43-8.75L257.43-8.75Q257.43-13.25 260.23-15.73 263.03-18.2 267.78-18.2L267.78-18.2Q271.53-18.2 274.53-16.55L274.53-16.55Q274.48-19 274.03-20.45 273.58-21.9 272.18-22.68 270.78-23.45 268.03-23.45L268.03-23.45 264.33-23.45 264.33-27.65 268.78-27.65ZM267.33-3.4Q269.03-3.4 270.9-4.2 272.78-5 274.58-6.6L274.58-6.6 274.58-12.9Q271.78-14.3 268.48-14.3L268.48-14.3Q265.83-14.3 264.03-13.03 262.23-11.75 262.23-8.75L262.23-8.75Q262.23-5.95 263.75-4.67 265.28-3.4 267.33-3.4L267.33-3.4ZM305.53-27.65L310.23-27.65 310.23 0.55Q310.23 6.2 307.6 9.38 304.98 12.55 298.43 12.55L298.43 12.55Q295.23 12.55 292.9 12.15 290.58 11.75 288.13 10.75L288.13 10.75 288.13 6.1Q290.43 7.15 292.73 7.68 295.03 8.2 296.98 8.2L296.98 8.2Q300.58 8.2 302.43 7.28 304.28 6.35 304.9 4.63 305.53 2.9 305.53 0.05L305.53 0.05 305.53-3.5Q301.58-0.15 297.53-0.15L297.53-0.15Q291.93-0.15 288.6-3.8 285.28-7.45 285.28-14.3L285.28-14.3Q285.28-21.2 288.63-24.83 291.98-28.45 297.53-28.45L297.53-28.45Q301.53-28.45 305.53-25.05L305.53-25.05 305.53-27.65ZM298.18-4.5Q301.83-4.5 305.53-7.6L305.53-7.6 305.53-20.95Q301.93-24.05 298.18-24.05L298.18-24.05Q294.28-24.05 292.2-21.48 290.13-18.9 290.13-14.3L290.13-14.3Q290.13-9.55 292.18-7.03 294.23-4.5 298.18-4.5L298.18-4.5ZM321.67-13.45Q321.77-8.85 323.97-6.1 326.17-3.35 330.97-3.35L330.97-3.35Q334.62-3.35 338.97-5.4L338.97-5.4 340.42-1.5Q335.87 0.85 330.57 0.85L330.57 0.85Q326.17 0.85 323.07-1 319.97-2.85 318.37-6.15 316.77-9.45 316.77-13.85L316.77-13.85Q316.77-18.5 318.45-21.78 320.12-25.05 322.97-26.75 325.82-28.45 329.37-28.45L329.37-28.45Q334.82-28.45 337.92-25.05 341.02-21.65 341.02-15.3L341.02-15.3 341.02-13.45 321.67-13.45ZM329.37-24.25Q323.17-24.25 321.97-17.4L321.97-17.4 336.07-17.4Q335.82-20.9 334.17-22.58 332.52-24.25 329.37-24.25L329.37-24.25ZM360.77-28.25L361.92-28.25 361.92-23.85 360.77-23.85Q356.47-23.85 352.42-20.4L352.42-20.4 352.42 0 347.72 0 347.72-27.65 352.42-27.65 352.42-24.55Q356.52-28.25 360.77-28.25L360.77-28.25Z" opacity="1" transform="matrix(1,0,0,1,0,0)" fill="#130912" class="undefined-text-0" data-fill-palette-color="primary" id="text-0"></path></svg></g></svg></g></svg></g></svg></g></svg></g></svg></g></svg></g><path d="M216.175 100.319L216.175 37.008 389.358 37.008 389.358 210.192 216.175 210.192 216.175 146.881 219.292 146.881 219.292 207.075 386.241 207.075 386.241 40.125 219.292 40.125 219.292 100.319Z" fill="#130912" stroke="transparent" data-fill-palette-color="primary"></path></svg></g></svg><rect width="395.52" height="247.2" fill="none" stroke="none" visibility="hidden"></rect></g><defs></defs></svg>